<?xml version="1.0" encoding="UTF-8" standalone="no"?>
<!-- Created with Inkscape (http://www.inkscape.org/) -->

<svg
   xmlns:dc="http://purl.org/dc/elements/1.1/"
   xmlns:cc="http://creativecommons.org/ns#"
   xmlns:rdf="http://www.w3.org/1999/02/22-rdf-syntax-ns#"
   xmlns:svg="http://www.w3.org/2000/svg"
   xmlns="http://www.w3.org/2000/svg"
   xmlns:sodipodi="http://sodipodi.sourceforge.net/DTD/sodipodi-0.dtd"
   xmlns:inkscape="http://www.inkscape.org/namespaces/inkscape"
   id="svg3159"
   version="1.1"
   inkscape:version="0.92.1 r15371"
   width="199.99734"
   height="56.528633"
   sodipodi:docname="logo.svg">
  <metadata
     id="metadata3165">
    <rdf:RDF>
      <cc:Work
         rdf:about="">
        <dc:format>image/svg+xml</dc:format>
        <dc:type
           rdf:resource="http://purl.org/dc/dcmitype/StillImage" />
        <dc:title></dc:title>
      </cc:Work>
    </rdf:RDF>
  </metadata>
  <defs
     id="defs3163" />
  <sodipodi:namedview
     pagecolor="#ffffff"
     bordercolor="#666666"
     borderopacity="1"
     objecttolerance="10"
     gridtolerance="10"
     guidetolerance="10"
     inkscape:pageopacity="0"
     inkscape:pageshadow="2"
     inkscape:window-width="1920"
     inkscape:window-height="1017"
     id="namedview3161"
     showgrid="false"
     fit-margin-top="0"
     fit-margin-left="0"
     fit-margin-right="0"
     fit-margin-bottom="0"
     inkscape:zoom="4"
     inkscape:cx="70.96103"
     inkscape:cy="11.609599"
     inkscape:window-x="-8"
     inkscape:window-y="-8"
     inkscape:window-maximized="1"
     inkscape:current-layer="svg3159" />
  <path
     style="fill:#009144;stroke:none;stroke-width:0.15955094"
     d="m 81.323379,16.08295 v -5.98826 h 1.37709 1.377091 v 4.59029 4.59032 h 1.064115 1.064116 v 1.39795 1.39795 h -2.441206 -2.441206 z"
     id="path1096"
     inkscape:connector-curvature="0" />
  <path
     id="path1092"
     style="fill:#009144;stroke:none;stroke-width:0.15955094"
     d="m 92.616554,17.82517 c -0.135076,-0.46337 -0.597107,-2.9224 -0.754671,-4.0165 -0.160836,-1.11681 -0.159942,-1.11507 -0.247872,-0.4799 -0.128324,0.92694 -0.387763,2.41723 -0.60743,3.48928 -0.115768,0.56497 -0.210487,1.03912 -0.210487,1.05369 0,0.0145 0.414392,0.0265 0.920873,0.0265 0.857311,0 0.919405,-0.005 0.899587,-0.073 z m -5.574914,4.2153 c 6.38e-4,-0.0175 0.711396,-2.7078 1.579356,-5.97839 l 1.578112,-5.94652 h 1.538537 1.538535 l 1.554783,5.86306 c 0.855131,3.22469 1.566157,5.91472 1.580052,5.97783 l 0.02526,0.11475 -1.411702,-10e-6 -1.411705,-4e-5 -0.226297,-1.00202 -0.226294,-1.00203 -1.441889,0.011 -1.441889,0.011 -0.23242,0.98066 -0.232424,0.98065 -1.385633,0.011 c -0.762098,0.006 -1.385075,-0.003 -1.384385,-0.0209 z"
     inkscape:connector-curvature="0" />
  <path
     style="fill:#009144;stroke:none;stroke-width:0.15955094"
     d="m 99.636779,22.36054 c -0.451677,-0.0393 -0.991622,-0.17242 -1.464902,-0.36116 l -0.365139,-0.1456 v -1.39706 c 0,-0.76838 0.01409,-1.39062 0.0313,-1.38273 0.01721,0.008 0.200305,0.10114 0.406869,0.20727 0.791727,0.40681 1.56268,0.59485 2.035953,0.4966 0.60587,-0.12577 0.94062,-0.70103 0.76316,-1.31148 -0.0902,-0.31021 -0.3972,-0.63727 -1.213376,-1.2926 -1.408173,-1.13064 -2.09174,-2.00164 -2.362588,-3.01044 -0.120232,-0.44779 -0.131125,-1.31272 -0.02246,-1.78354 0.286244,-1.24025 1.134206,-2.14915 2.329925,-2.4973496 0.387639,-0.11288 1.369179,-0.15569 1.874789,-0.0818 0.35903,0.0525 0.85641,0.18517 1.25925,0.3358796 l 0.23863,0.0893 v 1.33236 c 0,0.7328 -0.007,1.33236 -0.0153,1.33236 -0.008,0 -0.19149,-0.0833 -0.40687,-0.18501 -0.81555,-0.38532 -1.48928,-0.52416 -1.93626,-0.39902 -0.45601,0.12769 -0.71207,0.47181 -0.68008,0.914 0.0363,0.50144 0.39614,0.94785 1.32426,1.64269 0.91898,0.688 1.77099,1.60905 2.10816,2.27903 0.31243,0.62081 0.44115,1.36736 0.35711,2.07124 -0.10803,0.90476 -0.42651,1.54228 -1.07707,2.15598 -0.79606,0.75096 -1.92129,1.10106 -3.185373,0.99106 z"
     id="path1104"
     inkscape:connector-curvature="0" />
  <path
     style="fill:#009144;stroke:none;stroke-width:0.15955094"
     d="m 105.86063,16.08295 v -5.98826 h 2.75418 2.75418 v 1.27277 1.27275 h -1.37709 -1.37709 v 1.10585 1.10585 h 1.18931 1.1893 v 1.23104 1.23103 h -1.1893 -1.18931 v 1.10585 1.10585 h 1.39796 1.39795 v 1.27275 1.27277 h -2.77504 -2.77505 z"
     id="path1090"
     inkscape:connector-curvature="0" />
  <path
     id="path1086"
     style="fill:#009144;stroke:none;stroke-width:0.15955094"
     d="m 117.13767,15.12479 c 0.70534,-0.20578 1.01587,-0.70654 0.91001,-1.46757 -0.11436,-0.82226 -0.50826,-1.14741 -1.5146,-1.25015 l -0.28167,-0.0288 v 1.43055 1.43055 l 0.32341,-0.0224 c 0.17787,-0.0123 0.43115,-0.0538 0.56285,-0.0922 z m -3.59872,0.95816 v -5.98826 h 1.91412 c 2.02457,0 2.32429,0.0216 2.91635,0.2102 0.96799,0.30835 1.71818,0.91907 2.11073,1.71827 0.22506,0.45823 0.30761,0.7603 0.36106,1.32124 0.12627,1.32527 -0.43844,2.58444 -1.43918,3.20896 -0.0918,0.0573 -0.17141,0.10769 -0.17688,0.11199 -0.005,0.004 0.4768,1.21767 1.07174,2.69639 l 1.08167,2.68859 -1.42362,0.011 c -0.99921,0.008 -1.43207,-0.003 -1.45193,-0.0348 -0.0156,-0.0252 -0.51446,-1.25506 -1.10866,-2.73302 -0.5942,-1.47799 -1.09443,-2.68762 -1.11165,-2.68809 -0.0172,0 -0.0313,1.22915 -0.0313,2.73247 v 2.73332 h -1.35623 -1.35623 v -5.98825 z"
     inkscape:connector-curvature="0" />
  <path
     style="fill:#009144;stroke:none;stroke-width:0.15955094"
     d="m 124.18329,22.23565 c -0.49805,-0.10771 -1.08129,-0.32366 -1.58892,-0.58829 -0.63715,-0.33216 -0.62225,-0.18081 -0.12354,-1.25463 0.23746,-0.51132 0.44221,-0.94169 0.45499,-0.95642 0.0128,-0.0147 0.17348,0.0576 0.3571,0.16075 0.67408,0.37863 1.26814,0.59629 1.6274,0.59629 0.20789,0 0.50764,-0.14658 0.62281,-0.30458 0.11368,-0.15595 0.10731,-0.41786 -0.0132,-0.54622 -0.0493,-0.0525 -0.28173,-0.18586 -0.51648,-0.29635 -1.65521,-0.77914 -1.89502,-0.92431 -2.19871,-1.33118 -0.36743,-0.49228 -0.47973,-0.89604 -0.44816,-1.61121 0.023,-0.52102 0.09,-0.76985 0.32697,-1.21443 0.16036,-0.30086 0.60366,-0.75528 0.92485,-0.94805 0.89521,-0.53729 2.08398,-0.5542 3.38858,-0.0482 0.43835,0.17002 1.27275,0.57443 1.27275,0.61689 0,0.028 -0.94532,1.80039 -0.97862,1.83483 -0.006,0.006 -0.13114,-0.0569 -0.27781,-0.14053 -1.27451,-0.72648 -2.29061,-0.73861 -2.29061,-0.0273 0,0.3066 0.25999,0.50134 1.10583,0.82826 1.23173,0.47606 1.83902,0.9455 2.11378,1.63396 0.084,0.21056 0.0958,0.31312 0.0968,0.84474 0.002,0.52279 -0.012,0.64483 -0.0956,0.8972 -0.28907,0.87327 -1.04729,1.58822 -1.94807,1.8369 -0.40896,0.1129 -1.33006,0.12185 -1.81206,0.0176 z"
     id="path1098"
     inkscape:connector-curvature="0" />
  <path
     style="fill:#009144;stroke:none;stroke-width:0.15955094"
     d="m 129.98058,19.02491 v -3.04629 h -0.47988 -0.4799 v -1.08498 -1.08497 h 0.4799 0.47988 v -1.10585 -1.10585 h 1.31451 1.31449 v 1.10585 1.10585 h 0.50076 0.50075 v 1.08497 1.08498 h -0.50075 -0.50076 v 3.04629 3.04629 h -1.31449 -1.31451 z"
     id="path1084"
     inkscape:connector-curvature="0" />
  <path
     style="fill:#009144;stroke:none;stroke-width:0.15955094"
     d="m 135.64109,18.59787 c -0.58981,-1.9111 -1.16384,-3.77074 -1.27561,-4.13256 l -0.2032,-0.65784 1.27803,0.011 1.27806,0.011 0.50891,2.20512 c 0.42977,1.86223 0.55309,2.35681 0.55744,2.23566 0,-0.01 0.23158,-1.01266 0.51385,-2.22909 l 0.51325,-2.21169 1.30031,-0.011 c 1.16204,-0.01 1.29767,-0.004 1.27541,0.0539 -0.0137,0.0357 -0.59252,1.89033 -1.28626,4.12142 l -1.26137,4.05654 -1.06321,0.0112 -1.0632,0.0112 -1.07241,-3.47471 z"
     id="path3171"
     inkscape:connector-curvature="0" />
  <path
     id="path1100"
     style="fill:#009144;stroke:none;stroke-width:0.15955094"
     d="m 145.90354,19.94745 c 0.38895,-0.17667 0.57499,-0.5978 0.65084,-1.47337 0.0558,-0.64436 -0.002,-1.45774 -0.13284,-1.88275 -0.17675,-0.57221 -0.58876,-0.82722 -1.09759,-0.6793 -0.37059,0.10772 -0.59035,0.4166 -0.70055,0.98465 -0.0711,0.36625 -0.0705,1.69855 0.002,2.0239 0.12485,0.56917 0.333,0.92793 0.60786,1.04769 0.17946,0.0782 0.47347,0.0691 0.67141,-0.0208 z m -1.1226,2.35209 c -1.03884,-0.19649 -1.88068,-0.87522 -2.36349,-1.90554 -0.64553,-1.37751 -0.60667,-3.69686 0.0851,-5.07897 0.43875,-0.87658 1.10414,-1.42932 2.02095,-1.67874 0.45798,-0.12461 1.46766,-0.1358 1.96131,-0.0217 1.35582,0.31327 2.22662,1.31142 2.57211,2.94827 0.12269,0.58128 0.15329,1.8612 0.0597,2.49787 -0.25057,1.70506 -1.13517,2.80904 -2.54839,3.18036 -0.44373,0.11658 -1.32731,0.14549 -1.78732,0.0585 z"
     inkscape:connector-curvature="0" />
  <path
     style="fill:#009144;stroke:none;stroke-width:0.15955094"
     d="m 150.11532,56.47226 c -0.81371,-0.0639 -1.67428,-0.16132 -2.1844,-0.2473 -2.40027,-0.40459 -4.42641,-1.30813 -5.72737,-2.55406 -0.96279,-0.92206 -1.46924,-2.08815 -1.62643,-3.74493 -0.0753,-0.79417 -0.006,-2.2587 0.25324,-5.3623 0.16507,-1.975 0.22103,-2.93612 0.39476,-6.78114 0.0809,-1.79021 0.15813,-3.39011 0.17165,-3.5553 l 0.0246,-0.30038 h 3.87754 3.87753 v 0.13317 c 0,0.0732 -0.12226,1.81382 -0.27136,3.86799 -0.42498,5.85528 -0.48869,6.97455 -0.49405,8.67984 -0.006,1.87262 0.18026,2.64783 0.7914,3.29567 0.32429,0.34375 0.75346,0.57521 1.37225,0.74003 0.38249,0.10189 0.48342,0.11114 1.21016,0.111 0.89488,0 1.18628,-0.0546 1.75454,-0.32796 0.83825,-0.40318 1.46753,-1.40484 1.72688,-2.74877 0.23421,-1.21361 0.5819,-6.0833 0.83766,-11.73199 0.0718,-1.58618 0.12386,-1.86941 0.36355,-1.97862 0.0691,-0.0315 1.25474,-0.0453 3.89486,-0.0453 h 3.79546 v 0.12354 c 0,0.0679 -0.17882,2.6359 -0.39741,5.70657 -0.22246,3.12528 -0.41542,6.12498 -0.43831,6.81408 -0.0993,2.98611 -0.29685,4.18218 -0.89282,5.40404 -0.49336,1.01151 -1.21619,1.8111 -2.25228,2.49152 -1.62664,1.06821 -3.43255,1.6318 -6.2013,1.93532 -0.57619,0.0632 -3.32865,0.11642 -3.86002,0.0747 z"
     id="path1114"
     inkscape:connector-curvature="0" />
  <path
     id="path1108"
     style="fill:#009144;stroke:none;stroke-width:0.15955094"
     d="m 103.04697,44.5741 c -0.0129,-0.0402 -0.3499,-1.04951 -0.74899,-2.243 l -0.7256,-2.16995 -0.32708,0.68854 c -0.1799,0.37869 -0.60702,1.2519 -0.94916,1.94044 -0.342137,0.68856 -0.684356,1.38805 -0.760489,1.55444 l -0.138423,0.30256 h 1.836552 c 1.73019,0 1.83521,-0.004 1.81319,-0.073 z M 58.204947,56.08535 c 0,-0.009 0.103039,-0.83542 0.228976,-1.83612 0.334663,-2.65926 1.156297,-11.88692 1.458761,-16.38322 0.126606,-1.88203 0.241337,-3.53822 0.254963,-3.68044 l 0.02477,-0.25857 h 4.819105 c 3.675895,0 4.822447,0.0123 4.833201,0.0499 0.0078,0.0272 0.08294,0.48132 0.167083,1.00921 0.193119,1.21161 0.313259,1.73993 0.80185,3.52617 0.818739,2.99322 1.055862,3.96211 1.455339,5.94654 0.263271,1.30781 0.268108,1.32964 0.289957,1.3078 0.0091,-0.009 0.166771,-0.50427 0.350374,-1.10035 0.602022,-1.9545 1.073505,-3.29741 2.270502,-6.46696 0.606278,-1.60536 0.777714,-2.11295 1.130762,-3.34797 l 0.259699,-0.90849 4.911211,-0.008 4.911211,-0.008 v 0.13412 c 0,0.0738 -0.03729,0.79079 -0.08286,1.59338 -0.20714,3.64782 -0.292849,5.98147 -0.460511,12.5386 -0.06132,2.39834 -0.0934,6.5937 -0.0543,7.10214 l 0.03432,0.4462 0.799497,-1.36427 c 0.801525,-1.36772 8.279813,-15.11624 9.458244,-17.38858 0.345179,-0.6656 0.829776,-1.62685 1.076893,-2.13612 l 0.449304,-0.92595 4.432092,0.008 4.43211,0.008 1.2403,3.4636 c 1.3144,3.6705 5.56014,14.94534 6.47424,17.19276 0.29872,0.73445 0.55791,1.37292 0.57598,1.41882 0.0327,0.0831 0.016,0.0835 -4.0953,0.0835 h -4.12814 l -0.0642,-0.22952 c -0.47266,-1.69082 -1.18258,-3.84037 -1.85022,-5.60226 l -0.0909,-0.23995 h -3.7461 -3.746099 l -0.534177,1.09541 c -0.573509,1.17608 -1.53357,3.22411 -2.019779,4.30863 l -0.299326,0.66769 h -7.633553 c -7.611523,0 -7.633498,0 -7.616172,-0.0835 0.04607,-0.22126 0.155653,-2.21086 0.249374,-4.5277 0.105248,-2.60185 0.273073,-7.66914 0.27019,-8.15822 -0.0014,-0.23086 -0.08561,0.002 -1.080203,2.9837 -0.593301,1.77873 -1.578413,4.70681 -2.189141,6.50683 -0.610722,1.80001 -1.110406,3.27413 -1.110406,3.27581 0,0.002 -1.471514,0.003 -3.270028,0.003 H 68.523816 L 67.553048,51.8445 c -0.533925,-2.34106 -1.185185,-5.12028 -1.447249,-6.17604 -0.56257,-2.2664 -0.557175,-2.24566 -0.578549,-2.2243 -0.067,0.067 -0.687238,9.96664 -0.687238,10.96902 0,0.24392 -0.01213,0.72345 -0.02693,1.06564 l -0.02693,0.62215 h -3.290601 c -1.809831,0 -3.290604,-0.007 -3.290604,-0.0167 z"
     inkscape:connector-curvature="0" />
  <path
     style="fill:#009144;stroke:none;stroke-width:0.15955094"
     d="m 115.35381,55.9351 c 0.0334,-0.24815 0.21553,-2.11963 0.3107,-3.19235 0.2093,-2.35893 0.43584,-6.29273 0.73657,-12.79025 0.0361,-0.78036 0.076,-2.45557 0.0886,-3.7227 l 0.023,-2.30387 h 4.00063 4.00063 l -0.002,0.17543 c -0.002,0.0965 -0.13764,2.26452 -0.3034,4.81788 -0.16576,2.55335 -0.29643,4.64247 -0.2904,4.64247 0.006,0 0.7399,-0.9718 1.6308,-2.15954 2.06675,-2.75535 4.282,-5.79536 4.91181,-6.7405 l 0.49056,-0.73614 h 4.48461 4.48461 l -0.14365,0.17621 c -4.23027,5.18909 -8.21057,10.16805 -8.21057,10.27021 0,0.11314 1.52349,2.33447 4.55354,6.63933 1.93857,2.75419 3.53652,5.02691 3.55098,5.05049 0.0179,0.0293 -1.45664,0.0425 -4.64103,0.0417 l -4.66735,-0.002 -0.15664,-0.29211 c -0.93011,-1.73432 -3.12358,-5.39288 -5.49655,-9.16784 l -0.88387,-1.40604 -0.0299,0.17501 c -0.0165,0.0962 -0.11451,2.32515 -0.21788,4.9531 -0.10336,2.62794 -0.19966,4.99404 -0.21399,5.25798 l -0.026,0.4799 h -4.00309 -4.0031 l 0.0225,-0.16692 z"
     id="path1106"
     inkscape:connector-curvature="0" />
  <path
     style="fill:#c6dee6;stroke-width:0.15955094"
     d="m 176.98945,56.4919 c -3.6824,-0.22032 -6.66766,-1.43133 -8.83025,-3.58214 -1.06933,-1.06348 -1.65134,-2.00021 -2.12116,-3.41391 -0.38738,-1.16555 -0.54162,-2.11434 -0.57476,-3.53554 -0.0529,-2.26854 0.29674,-4.01199 1.15488,-5.75859 1.09261,-2.22384 2.7777,-3.86646 5.21764,-5.08618 1.17003,-0.58491 2.2619,-0.9567 3.6215,-1.23314 2.18322,-0.4439 4.18083,-0.51744 6.81101,-0.25073 1.0851,0.11004 3.42854,0.44856 3.48175,0.50295 0.009,0.009 0.0379,0.66412 0.0648,1.45593 0.0269,0.79182 0.0911,2.1251 0.14267,2.96283 0.0516,0.83773 0.092,1.5266 0.0899,1.53083 -0.002,0.004 -0.27592,-0.0567 -0.60832,-0.13538 -2.31674,-0.54833 -3.87014,-0.7575 -5.31911,-0.71625 -1.1502,0.0327 -1.92626,0.18538 -2.92225,0.57479 -2.48796,0.97275 -4.08894,3.47566 -3.92247,6.13223 0.0894,1.42602 0.56051,2.48183 1.51058,3.38518 1.40306,1.33407 3.32036,1.78124 6.31321,1.47246 1.10346,-0.11385 2.1589,-0.31605 3.81396,-0.73064 0.45618,-0.11429 0.83576,-0.20145 0.84349,-0.1937 0.008,0.008 -0.0604,0.37938 -0.15141,0.82587 -0.21833,1.07086 -0.63599,3.58136 -0.75346,4.52884 l -0.0935,0.75421 -0.52507,0.0734 c -2.86237,0.40009 -5.34933,0.55002 -7.24358,0.43669 z"
     id="path888"
     inkscape:connector-curvature="0" />
  <path
     style="fill:#bee2cf;stroke-width:0.15955094"
     d="m 176.98945,56.4919 c -3.6824,-0.22032 -6.66766,-1.43133 -8.83025,-3.58214 -1.06933,-1.06348 -1.65134,-2.00021 -2.12116,-3.41391 -0.38738,-1.16555 -0.54162,-2.11434 -0.57476,-3.53554 -0.0529,-2.26854 0.29674,-4.01199 1.15488,-5.75859 1.09261,-2.22384 2.7777,-3.86646 5.21764,-5.08618 1.17003,-0.58491 2.2619,-0.9567 3.6215,-1.23314 2.18322,-0.4439 4.18083,-0.51744 6.81101,-0.25073 1.0851,0.11004 3.42854,0.44856 3.48175,0.50295 0.009,0.009 0.0379,0.66412 0.0648,1.45593 0.0269,0.79182 0.0911,2.1251 0.14267,2.96283 0.0516,0.83773 0.092,1.5266 0.0899,1.53083 -0.002,0.004 -0.27592,-0.0567 -0.60832,-0.13538 -2.31674,-0.54833 -3.87014,-0.7575 -5.31911,-0.71625 -1.1502,0.0327 -1.92626,0.18538 -2.92225,0.57479 -2.48796,0.97275 -4.08894,3.47566 -3.92247,6.13223 0.0894,1.42602 0.56051,2.48183 1.51058,3.38518 1.40306,1.33407 3.32036,1.78124 6.31321,1.47246 1.10346,-0.11385 2.1589,-0.31605 3.81396,-0.73064 0.45618,-0.11429 0.83576,-0.20145 0.84349,-0.1937 0.008,0.008 -0.0604,0.37938 -0.15141,0.82587 -0.21833,1.07086 -0.63599,3.58136 -0.75346,4.52884 l -0.0935,0.75421 -0.52507,0.0734 c -2.86237,0.40009 -5.34933,0.55002 -7.24358,0.43669 z"
     id="path926"
     inkscape:connector-curvature="0" />
  <path
     style="fill:#8ebfce;stroke-width:0.15955094"
     d="m 177.28156,56.51342 c -1.94148,-0.1063 -3.77062,-0.48496 -5.28822,-1.09479 -1.58168,-0.63557 -3.28549,-1.82748 -4.30027,-3.00824 -1.25965,-1.46573 -1.94143,-3.16326 -2.18264,-5.43445 -0.0916,-0.86279 -0.0619,-2.524 0.0592,-3.31167 0.40502,-2.63392 1.42147,-4.67231 3.1835,-6.38422 1.57871,-1.5338 3.65771,-2.65262 6.00379,-3.23096 2.20562,-0.5437 4.27276,-0.68935 6.802,-0.47929 1.19757,0.0995 4.11968,0.49252 4.18974,0.56355 0.01,0.01 0.0393,0.66565 0.066,1.45748 0.0267,0.79182 0.0895,2.12185 0.13959,2.95564 0.0501,0.83378 0.086,1.52104 0.0798,1.52725 -0.006,0.006 -0.23167,-0.0422 -0.50099,-0.10768 -0.85379,-0.20748 -2.5173,-0.5315 -3.18437,-0.62026 -0.82882,-0.11028 -2.31285,-0.15347 -2.93674,-0.0855 -1.0351,0.1128 -1.9011,0.36279 -2.77354,0.80064 -0.67499,0.33875 -1.14227,0.68095 -1.65334,1.21081 -0.83529,0.86594 -1.41836,2.02063 -1.63028,3.22843 -0.10052,0.57288 -0.10119,1.69762 -0.002,2.20643 0.2924,1.48945 1.08203,2.5919 2.4134,3.36946 1.86051,1.08659 4.79118,1.09171 9.08136,0.0158 0.49558,-0.12427 0.90463,-0.22204 0.90901,-0.21727 0.004,0.005 -0.0742,0.42182 -0.17468,0.92675 -0.21972,1.10448 -0.56629,3.16922 -0.68645,4.08955 -0.1585,1.21392 -0.11915,1.07827 -0.32285,1.11306 -0.26309,0.0449 -2.09168,0.27324 -2.59708,0.3243 -1.41879,0.14331 -3.76682,0.23588 -4.69462,0.18509 z"
     id="path964"
     inkscape:connector-curvature="0" />
  <path
     style="fill:#7ec7a1;stroke-width:0.15955094"
     d="m 177.28156,56.51342 c -1.94148,-0.1063 -3.77062,-0.48496 -5.28822,-1.09479 -1.58168,-0.63557 -3.28549,-1.82748 -4.30027,-3.00824 -1.25965,-1.46573 -1.94143,-3.16326 -2.18264,-5.43445 -0.0916,-0.86279 -0.0619,-2.524 0.0592,-3.31167 0.40502,-2.63392 1.42147,-4.67231 3.1835,-6.38422 1.57871,-1.5338 3.65771,-2.65262 6.00379,-3.23096 2.20562,-0.5437 4.27276,-0.68935 6.802,-0.47929 1.19757,0.0995 4.11968,0.49252 4.18974,0.56355 0.01,0.01 0.0393,0.66565 0.066,1.45748 0.0267,0.79182 0.0895,2.12185 0.13959,2.95564 0.0501,0.83378 0.086,1.52104 0.0798,1.52725 -0.006,0.006 -0.23167,-0.0422 -0.50099,-0.10768 -0.85379,-0.20748 -2.5173,-0.5315 -3.18437,-0.62026 -0.82882,-0.11028 -2.31285,-0.15347 -2.93674,-0.0855 -1.0351,0.1128 -1.9011,0.36279 -2.77354,0.80064 -0.67499,0.33875 -1.14227,0.68095 -1.65334,1.21081 -0.83529,0.86594 -1.41836,2.02063 -1.63028,3.22843 -0.10052,0.57288 -0.10119,1.69762 -0.002,2.20643 0.2924,1.48945 1.08203,2.5919 2.4134,3.36946 1.86051,1.08659 4.79118,1.09171 9.08136,0.0158 0.49558,-0.12427 0.90463,-0.22204 0.90901,-0.21727 0.004,0.005 -0.0742,0.42182 -0.17468,0.92675 -0.21972,1.10448 -0.56629,3.16922 -0.68645,4.08955 -0.1585,1.21392 -0.11915,1.07827 -0.32285,1.11306 -0.26309,0.0449 -2.09168,0.27324 -2.59708,0.3243 -1.41879,0.14331 -3.76682,0.23588 -4.69462,0.18509 z"
     id="path1002"
     inkscape:connector-curvature="0" />
  <path
     style="fill:#56a0b6;stroke-width:0.15955094"
     d="m 176.63475,56.45166 c -2.36756,-0.19091 -4.48333,-0.80722 -6.16295,-1.79525 -1.64311,-0.96656 -2.85207,-2.11161 -3.66143,-3.46789 -1.57006,-2.63098 -1.79858,-6.96051 -0.53693,-10.17176 1.03017,-2.62203 2.90031,-4.5775 5.67966,-5.93887 1.13516,-0.556 2.16356,-0.89846 3.52148,-1.17266 1.37938,-0.27853 2.09245,-0.35609 3.56009,-0.38715 1.88419,-0.0399 3.78627,0.13282 6.57597,0.59708 l 0.15,0.025 0.0259,1.17446 c 0.0142,0.64596 0.0737,1.9708 0.13209,2.94411 0.0584,0.97329 0.10001,1.77577 0.0925,1.78325 -0.007,0.007 -0.46305,-0.0871 -1.01237,-0.21012 -1.7526,-0.39266 -2.66335,-0.53651 -3.89387,-0.61498 -1.96189,-0.12512 -3.7315,0.29075 -5.11393,1.20179 -0.53469,0.35238 -1.32762,1.13715 -1.66613,1.64897 -0.69506,1.05098 -1.01394,2.05542 -1.05745,3.3308 -0.0561,1.64587 0.38428,2.82827 1.44617,3.88266 0.73712,0.73191 1.68801,1.22577 2.80754,1.45815 0.67501,0.14012 1.2745,0.18085 2.28218,0.15505 1.56981,-0.0402 2.62951,-0.20111 4.77297,-0.72476 0.61529,-0.15032 1.12813,-0.26388 1.13967,-0.25236 0.0115,0.0115 -0.0639,0.45018 -0.16756,0.97476 -0.29744,1.50498 -0.69341,3.95669 -0.75948,4.7024 -0.0248,0.28036 -0.0415,0.33153 -0.11757,0.36044 -0.16314,0.062 -2.14421,0.3079 -3.36286,0.41737 -1.38326,0.12426 -3.64239,0.16271 -4.67376,0.0795 z"
     id="path1040"
     inkscape:connector-curvature="0" />
  <path
     style="fill:#1f819e;stroke-width:0.15955094"
     d="m 176.63475,56.45166 c -2.36756,-0.19091 -4.48333,-0.80722 -6.16295,-1.79525 -1.64311,-0.96656 -2.85207,-2.11161 -3.66143,-3.46789 -1.57006,-2.63098 -1.79858,-6.96051 -0.53693,-10.17176 1.03017,-2.62203 2.90031,-4.5775 5.67966,-5.93887 1.13516,-0.556 2.16356,-0.89846 3.52148,-1.17266 1.37938,-0.27853 2.09245,-0.35609 3.56009,-0.38715 1.88419,-0.0399 3.78627,0.13282 6.57597,0.59708 l 0.15,0.025 0.0259,1.17446 c 0.0142,0.64596 0.0737,1.9708 0.13209,2.94411 0.0584,0.97329 0.10001,1.77577 0.0925,1.78325 -0.007,0.007 -0.46305,-0.0871 -1.01237,-0.21012 -1.7526,-0.39266 -2.66335,-0.53651 -3.89387,-0.61498 -1.96189,-0.12512 -3.7315,0.29075 -5.11393,1.20179 -0.53469,0.35238 -1.32762,1.13715 -1.66613,1.64897 -0.69506,1.05098 -1.01394,2.05542 -1.05745,3.3308 -0.0561,1.64587 0.38428,2.82827 1.44617,3.88266 0.73712,0.73191 1.68801,1.22577 2.80754,1.45815 0.67501,0.14012 1.2745,0.18085 2.28218,0.15505 1.56981,-0.0402 2.62951,-0.20111 4.77297,-0.72476 0.61529,-0.15032 1.12813,-0.26388 1.13967,-0.25236 0.0115,0.0115 -0.0639,0.45018 -0.16756,0.97476 -0.29744,1.50498 -0.69341,3.95669 -0.75948,4.7024 -0.0248,0.28036 -0.0415,0.33153 -0.11757,0.36044 -0.16314,0.062 -2.14421,0.3079 -3.36286,0.41737 -1.38326,0.12426 -3.64239,0.16271 -4.67376,0.0795 z"
     id="path1078"
     inkscape:connector-curvature="0" />
  <path
     id="path1074"
     style="fill:#1f819e;stroke-width:0.15955094"
     d="m 18.351063,55.14009 c 0.07647,-0.0448 0.173092,-0.12834 0.214709,-0.18573 0.04161,-0.0574 1.364844,-3.25911 2.940507,-7.11497 1.575658,-3.85585 2.876847,-7.02344 2.891527,-7.0391 0.01468,-0.0156 0.252028,0.0267 0.527447,0.0941 0.275418,0.0674 0.75427,0.16212 1.064115,0.21046 0.309845,0.0483 0.586828,0.0946 0.615517,0.10278 0.04129,0.0118 0.05221,0.90029 0.0524,4.26223 0,2.83506 0.01479,4.29976 0.044,4.40498 0.135298,0.48719 0.875346,0.79444 1.672456,0.69435 0.317561,-0.0399 0.703155,-0.19306 0.863978,-0.34321 0.250335,-0.23373 0.234168,0.0606 0.256969,-4.67891 l 0.02087,-4.33704 0.605084,-0.0949 c 0.332797,-0.0522 0.864616,-0.15918 1.181822,-0.23778 l 0.576739,-0.14289 0.03416,0.0889 c 0.240311,0.62503 5.865803,13.97091 5.920052,14.04468 0.359007,0.48823 1.551663,0.32335 2.192474,-0.3031 0.249412,-0.24382 0.384309,-0.53266 0.349043,-0.74733 -0.01651,-0.10049 -3.381084,-8.16545 -5.857327,-14.04015 l -0.05616,-0.13323 0.448773,-0.27039 c 0.36664,-0.22089 0.770353,-0.49669 1.412673,-0.96504 0.04334,-0.0316 0.777139,0.67782 3.113699,3.01026 3.287871,3.28206 3.169475,3.17799 3.564296,3.13347 0.656122,-0.0739 1.487834,-0.89731 1.548956,-1.53341 0.04521,-0.47052 0.256548,-0.22604 -3.102002,-3.58852 l -3.06376,-3.06735 0.366101,-0.50256 c 0.201352,-0.2764 0.503418,-0.73301 0.671253,-1.01468 0.172346,-0.28922 0.326108,-0.5036 0.353296,-0.49256 0.02648,0.0107 3.202929,1.31048 7.058784,2.88831 5.200266,2.12795 7.053747,2.869 7.177563,2.86967 0.355796,0.002 0.73291,-0.30016 0.993329,-0.79574 0.163361,-0.31087 0.277823,-0.71878 0.27882,-0.99361 9.58e-4,-0.25349 -0.107689,-0.57044 -0.23835,-0.69554 -0.08126,-0.0778 -2.215889,-0.96942 -7.164853,-2.99265 -3.877012,-1.58503 -7.057253,-2.89 -7.067198,-2.89994 -0.0099,-0.01 0.0308,-0.2211 0.09055,-0.46923 0.05975,-0.24815 0.149619,-0.69999 0.199709,-1.00409 l 0.09106,-0.55292 h 78.377536 c 73.75777,0 78.39071,-0.004 78.6014,-0.0712 0.31115,-0.0989 0.69395,-0.47948 0.83088,-0.82601 0.0849,-0.21486 0.0988,-0.3214 0.0982,-0.75113 -0.002,-0.56287 -0.0464,-0.73354 -0.29129,-1.0913 -0.17225,-0.25161 -0.38996,-0.41397 -0.66688,-0.4973 -0.17188,-0.0517 -10.6964,-0.0597 -78.57416,-0.0597 H 41.194147 l -0.09073,-0.55293 c -0.0499,-0.3041 -0.14757,-0.7857 -0.217047,-1.0702 -0.06947,-0.28451 -0.120419,-0.52318 -0.113212,-0.53038 0.0072,-0.007 3.157693,-1.33152 7.001084,-2.9429 3.843386,-1.61138 7.041983,-2.96717 7.107996,-3.01283 0.594645,-0.41137 0.222826,-1.95988 -0.584149,-2.43279 -0.363148,-0.21282 0.03394,-0.36152 -7.589765,2.8422 -3.809952,1.60106 -6.955352,2.9188 -6.98978,2.92833 -0.04299,0.0118 -0.152895,-0.13272 -0.350966,-0.46174 -0.158603,-0.26347 -0.444977,-0.6907 -0.636383,-0.94941 -0.191407,-0.25871 -0.348013,-0.48025 -0.348013,-0.49233 0,-0.0121 1.379115,-1.40234 3.064699,-3.08948 2.109162,-2.11111 3.073534,-3.10392 3.093031,-3.18422 0.09608,-0.39573 -0.103549,-0.89991 -0.524176,-1.32384 -0.477279,-0.48103 -1.068781,-0.69819 -1.421479,-0.52188 -0.07887,0.0394 -1.508786,1.43523 -3.177591,3.10179 l -3.034198,3.03008 -0.179015,-0.13439 C 35.867317,17.36104 34.937431,16.74376 34.657192,16.58704 34.503141,16.50094 34.3771,16.41241 34.3771,16.39041 c 0,-0.022 1.288853,-3.18927 2.864115,-7.0383496 1.881886,-4.59833 2.871027,-7.06489 2.884276,-7.19235 0.06416,-0.6173 -0.863796,-1.28741998 -1.782769,-1.28741998 -0.355081,0 -0.624558,0.1036 -0.759755,0.29210998 -0.04115,0.0574 -1.351915,3.23094 -2.912802,7.05237 -1.56089,3.8214196 -2.855381,6.9878496 -2.876646,7.0364996 l -0.03867,0.0885 -0.57716,-0.1394 c -0.317436,-0.0767 -0.774332,-0.16907 -1.015323,-0.20532 -0.24099,-0.0363 -0.489805,-0.0759 -0.552922,-0.088 l -0.114759,-0.0221 -4.78e-4,-4.26358 c 0,-2.6617396 -0.01564,-4.3189996 -0.04121,-4.4110896 -0.130489,-0.4697 -0.938003,-0.79123 -1.692553,-0.67391 -0.58159,0.0904 -0.961546,0.34046 -1.057947,0.69623 -0.03109,0.11473 -0.0453,1.49391 -0.04546,4.4110596 l -4.79e-4,4.24415 -0.135621,0.022 c -0.910862,0.14752 -1.217808,0.20665 -1.689081,0.32539 -0.34689,0.0874 -0.558607,0.12305 -0.569886,0.096 C 22.506863,11.11858 18.371885,1.3221604 18.316764,1.2479504 18.129475,0.99581042 17.664711,0.89341042 17.171976,0.99570042 c -0.309803,0.0643 -0.759657,0.29055998 -1.002127,0.50398998 -0.24752,0.21788 -0.423792,0.56822 -0.393463,0.78204 0.01213,0.0855 1.330983,3.27275 2.930778,7.0827 1.599792,3.8099496 2.924333,6.9674496 2.943415,7.0166496 0.03127,0.0806 -0.01394,0.11885 -0.457503,0.38683 -0.27071,0.16356 -0.69631,0.44724 -0.945773,0.63039 -0.249461,0.18315 -0.463395,0.333 -0.475404,0.333 -0.01201,0 -1.373846,-1.3533 -3.026296,-3.00734 -1.80509,-1.80684 -3.070206,-3.04157 -3.169172,-3.09307 -0.647341,-0.33688 -1.902886,0.61147 -1.975947,1.4925 -0.01015,0.12233 -0.0057,0.27492 0.0099,0.33909 0.0195,0.0803 0.985962,1.0752 3.100097,3.19129 2.871622,2.87428 3.067908,3.07988 3.012536,3.15551 -0.489526,0.66859 -0.764577,1.07326 -1.004601,1.47807 l -0.289882,0.48888 -0.196109,-0.0786 c -0.107859,-0.0433 -3.275786,-1.3406 -7.0398336,-2.88299 -7.3930833,-3.02946 -7.0704936,-2.91031 -7.4042088,-2.73451 -0.5551,0.29241 -1.0044785,1.26241 -0.89120211,1.9237 0.0517105,0.3019 0.16636061,0.49014 0.35926091,0.58989 0.072615,0.0376 3.2640931,1.34926 7.0921686,2.91489 3.828079,1.56562 6.970904,2.85736 6.984057,2.87051 0.01315,0.0131 -0.03409,0.26449 -0.104987,0.55853 -0.133358,0.55308 -0.29721,1.44824 -0.29721,1.62373 v 0.10017 h -4.341997 c -4.7271521,0 -4.4446241,-0.0142 -4.6775302,0.23623 -0.2671361,0.2873 -0.3903142,0.7268 -0.359213,1.2817 0.034364,0.6132 0.2649695,1.08037 0.6030116,1.2216 0.1103758,0.0461 0.9201335,0.0564 4.4494056,0.0564 h 4.314471 l 0.05176,0.386 c 0.0648,0.48323 0.180764,1.05811 0.320373,1.58817 0.05929,0.22511 0.101069,0.41525 0.09284,0.42251 -0.0082,0.007 -3.160359,1.33124 -7.0047379,2.94216 -3.8443784,1.61093 -7.0367263,2.9616 -7.094104,3.00152 -0.057379,0.0399 -0.1497067,0.16314 -0.2051745,0.27386 -0.39118548,0.78082 0.3716053,2.2773 1.1607953,2.2773 0.1322597,0 1.7594719,-0.66649 7.182618,-2.94196 3.8563931,-1.61807 7.0281871,-2.94196 7.0484341,-2.94196 0.02025,0 0.09756,0.10797 0.171802,0.23995 0.185825,0.33032 0.675806,1.06124 0.926661,1.38232 l 0.207854,0.26605 -3.048999,3.05149 c -1.698442,1.69982 -3.068418,3.10352 -3.092838,3.16895 -0.09104,0.24397 -0.05382,0.53991 0.10877,0.86491 0.365317,0.73023 1.213003,1.25466 1.751325,1.08348 0.131025,-0.0417 0.739828,-0.62852 3.20865,-3.09297 1.675819,-1.67286 3.06184,-3.04156 3.080051,-3.04156 0.01821,0 0.179661,0.11156 0.358782,0.24791 0.350433,0.26676 1.002765,0.69643 1.390763,0.91603 0.131971,0.0747 0.239947,0.15188 0.239947,0.17151 0,0.0196 -1.295718,3.20351 -2.879371,7.07527 -2.123579,5.19178 -2.879373,7.08248 -2.879373,7.20305 0,0.45774 0.562972,0.9796 1.277277,1.18401 0.295461,0.0846 0.878843,0.0596 1.057893,-0.0452 z m -1.229326,0.90298 C 16.280274,55.81402 15.61332,55.31278 15.298128,54.67255 15.171419,54.41516 15.160461,54.36112 15.160862,53.99551 l 4.78e-4,-0.3973 2.766667,-6.75569 c 1.521669,-3.71564 2.751466,-6.76933 2.732883,-6.78601 -0.01859,-0.0166 -0.209822,-0.14753 -0.42497,-0.29081 l -0.391181,-0.2605 -2.863761,2.8582 c -2.723543,2.71825 -2.87602,2.86288 -3.11414,2.95389 -0.351128,0.13422 -0.853808,0.13505 -1.244634,0.002 -0.596564,-0.20298 -1.322025,-0.83273 -1.624254,-1.40996 -0.226992,-0.4335 -0.294527,-0.71448 -0.273061,-1.13601 0.03175,-0.62347 -0.09677,-0.47092 3.062442,-3.63504 1.547057,-1.54943 2.812823,-2.83124 2.812823,-2.84846 0,-0.08 -0.479235,-0.74107 -0.524605,-0.72366 -0.02797,0.0107 -2.968192,1.24384 -6.5338229,2.74022 -3.5656301,1.4964 -6.6050245,2.76718 -6.7542094,2.82394 -0.2298204,0.0874 -0.3234321,0.10055 -0.6129468,0.0858 -0.2895515,-0.0147 -0.3893043,-0.0409 -0.6535462,-0.17153 -0.54707311,-0.27038 -1.09402331,-0.96637 -1.29406509,-1.6467 -0.29170539,-0.99205 -0.0882891,-1.81916 0.57108707,-2.32208 0.0758202,-0.0578 3.14120702,-1.36472 6.81197162,-2.90418 3.6707697,-1.53948 6.6886647,-2.81356 6.7064417,-2.83128 0.01778,-0.0177 -0.01039,-0.25101 -0.0626,-0.5184 l -0.09491,-0.48613 -4.047812,-0.0115 -4.0478129,-0.0115 -0.2827338,-0.13393 C 5.0823379,29.84814 4.6668162,29.05743 4.6668162,28.0594 c 0,-0.98377 0.4087041,-1.78852 1.0749154,-2.11652 l 0.2780511,-0.13691 4.0690773,-0.0208 4.069074,-0.0209 0.08134,-0.4269 c 0.04473,-0.23478 0.07313,-0.43407 0.0631,-0.44288 -0.01004,-0.009 -2.994629,-1.23239 -6.6324437,-2.71907 C 4.0321146,20.68873 0.97084573,19.42987 0.8671089,19.37795 0.64532671,19.26697 0.32799584,18.94142 0.20324774,18.69689 0.04347981,18.38371 -0.02144306,18.03718 0.00617361,17.64496 0.10839471,16.19311 1.2688279,14.94582 2.344849,15.13125 c 0.1691272,0.0291 2.4943253,0.96051 6.9108214,2.76816 3.6607676,1.49833 6.6934956,2.73121 6.7393976,2.73973 0.06589,0.0123 0.136182,-0.0654 0.333842,-0.36848 0.137708,-0.21119 0.257339,-0.40159 0.265853,-0.42313 0.0085,-0.0215 -1.260796,-1.31869 -2.820678,-2.88256 -3.196771,-3.20492 -3.019848,-2.992 -3.050022,-3.67057 -0.02061,-0.46354 0.08537,-0.82272 0.37259,-1.2627 0.359964,-0.55141 0.86193,-0.96948 1.46492,-1.22009 0.221574,-0.0921 0.326425,-0.10913 0.679315,-0.11039 0.719213,-0.003 0.469029,-0.20692 3.734836,3.0506 l 2.858507,2.85127 0.366503,-0.23923 c 0.291187,-0.19007 0.362972,-0.25638 0.349325,-0.32269 -0.0094,-0.0459 -1.25957,-3.04074 -2.778054,-6.6551896 -1.51849,-3.61445 -2.790691,-6.67426 -2.827121,-6.79957 -0.04647,-0.15984 -0.05869,-0.30949 -0.04094,-0.5015 0.09477,-1.02558 1.391516,-2.00546998 2.653912,-2.00546998 0.807259,0 1.350884,0.33287 1.66971,1.02237998 0.0849,0.18361 1.371482,3.23716 2.859065,6.78569 l 2.704703,6.4518396 0.338226,-0.0732 c 0.186025,-0.0402 0.408646,-0.0854 0.494714,-0.10033 l 0.156488,-0.0272 V 10.2408 c 0,-2.7270396 0.01409,-3.9642296 0.04692,-4.1189496 0.143109,-0.67447 0.688419,-1.18344 1.497089,-1.39731 0.367445,-0.0972 1.134836,-0.0972 1.502282,0 0.801032,0.21185 1.348384,0.71252 1.500661,1.37268 0.02566,0.11122 0.0417,1.66847 0.04233,4.1102396 l 9.58e-4,3.93116 0.156486,0.0268 c 0.08607,0.0147 0.276612,0.0535 0.423438,0.0862 0.146814,0.0326 0.272751,0.0535 0.279846,0.0464 0.0071,-0.007 1.240796,-3.01673 2.741545,-6.6880596 1.500742,-3.67133 2.75914,-6.73411998 2.79643,-6.80616998 0.11331,-0.21899 0.433095,-0.50423 0.728117,-0.64945 0.255794,-0.12594 0.318413,-0.1388 0.739374,-0.15179 0.577686,-0.0178 0.91044,0.0546 1.430117,0.3113 0.532659,0.2631 0.952226,0.65536 1.168002,1.09194998 0.148777,0.30103 0.156876,0.33828 0.15572,0.71615 l -0.0013,0.39861 -2.767113,6.75305 C 36.699749,12.9878 35.460914,16.03253 35.4687,16.03969 c 0.0078,0.007 0.201127,0.13763 0.429657,0.28997 l 0.415502,0.27698 2.860305,-2.85309 c 3.17189,-3.16388 3.009056,-3.02569 3.611442,-3.06461 0.633641,-0.0409 1.214034,0.22195 1.817911,0.8234 0.607054,0.60458 0.855582,1.15063 0.823753,1.80983 -0.03127,0.64754 0.12961,0.45533 -3.04463,3.63767 -1.557114,1.56109 -2.831111,2.85229 -2.831111,2.86934 0,0.0171 0.105285,0.18922 0.233967,0.38259 0.206113,0.30972 0.24461,0.3475 0.323409,0.31749 0.04919,-0.0187 3.075223,-1.28922 6.724513,-2.82332 l 6.635075,-2.78925 0.438165,-0.002 c 0.400321,-0.002 0.459791,0.009 0.688545,0.12059 0.368352,0.17912 0.874362,0.70201 1.093645,1.13017 0.672496,1.31304 0.415977,2.53692 -0.634614,3.02784 -0.183612,0.0858 -3.23512,1.37182 -6.78113,2.85783 -3.546009,1.486 -6.454442,2.70785 -6.463189,2.71521 -0.0087,0.007 0.01706,0.18307 0.05734,0.39045 l 0.07324,0.37705 h 78.042055 c 69.92465,0 78.06793,0.007 78.29077,0.0639 0.42003,0.10786 0.68677,0.26241 0.99986,0.57936 0.52218,0.52861 0.7555,1.17733 0.7208,2.00404 -0.0502,1.19568 -0.7257,2.09699 -1.75319,2.33924 -0.22984,0.0542 -9.64095,0.0617 -78.28018,0.0622 H 41.941689 l -0.06202,0.31173 -0.06203,0.31171 0.296208,0.12288 c 0.162915,0.0676 3.196241,1.30846 6.740728,2.7575 4.38348,1.79204 6.50546,2.67945 6.635074,2.77473 0.606166,0.44564 0.821588,1.34556 0.541221,2.26087 -0.379422,1.23869 -1.385158,2.0374 -2.311976,1.83607 -0.178142,-0.0387 -10.502832,-4.22849 -13.48788,-5.47342 l -0.13427,-0.056 -0.272598,0.41605 c -0.149928,0.22883 -0.272597,0.4293 -0.272597,0.4455 0,0.0162 1.265767,1.29718 2.81282,2.84662 3.13461,3.13949 3.02728,3.01317 3.062705,3.60418 0.04142,0.691 -0.202353,1.24245 -0.824393,1.86497 -0.328946,0.32919 -0.459949,0.42857 -0.75294,0.57117 -0.418156,0.20352 -0.782379,0.28304 -1.13002,0.24671 -0.553573,-0.0579 -0.420354,0.0571 -3.548496,-3.06311 l -2.863256,-2.85604 -0.360389,0.23984 c -0.198209,0.1319 -0.360384,0.25703 -0.360384,0.27806 0,0.021 1.251291,3.01808 2.780642,6.66011 1.529357,3.64203 2.810018,6.73976 2.845917,6.88385 0.125967,0.50556 -0.05391,1.05556 -0.501773,1.53434 -0.7874,0.84173 -2.146969,1.17653 -3.010751,0.74142 -0.234519,-0.11815 -0.532938,-0.38139 -0.653517,-0.57648 -0.04623,-0.0748 -1.342463,-3.13694 -2.880525,-6.80476 -1.53806,-3.66782 -2.800776,-6.67298 -2.80603,-6.67812 -0.0082,-0.008 -0.609397,0.10755 -0.89513,0.172 l -0.0927,0.0209 -0.01163,4.03688 -0.01163,4.0369 -0.133921,0.28272 c -0.171142,0.3613 -0.465252,0.64975 -0.85806,0.84152 -0.433885,0.21182 -0.729935,0.27741 -1.26478,0.28023 -1.207824,0.006 -2.096908,-0.58264 -2.270363,-1.50407 -0.02669,-0.14173 -0.04232,-1.65623 -0.04232,-4.09918 v -3.87441 l -0.09389,-0.0213 c -0.316289,-0.0718 -0.751691,-0.15009 -0.764428,-0.13736 -0.0082,0.008 -1.247331,3.02806 -2.753522,6.71068 -1.506195,3.68265 -2.775268,6.75563 -2.82016,6.82886 -0.139129,0.22693 -0.521501,0.54339 -0.776998,0.64304 -0.340052,0.13262 -1.040929,0.15253 -1.449979,0.0412 z"
     inkscape:connector-curvature="0" />
  <path
     style="fill:#009144;stroke:none;stroke-width:0.15955094"
     d="m 176.96858,56.47426 c -0.0803,-0.009 -0.38078,-0.0372 -0.66767,-0.0627 -1.08613,-0.0966 -2.42773,-0.36542 -3.41219,-0.68371 -2.41802,-0.7818 -4.65831,-2.39223 -5.865,-4.21604 -1.45011,-2.19178 -1.9465,-5.68673 -1.25354,-8.82591 0.5506,-2.49432 1.94828,-4.70117 3.93738,-6.21685 2.11136,-1.60885 4.48123,-2.49704 7.63661,-2.86203 0.782,-0.0905 2.68634,-0.12402 3.58878,-0.0632 1.26418,0.0851 2.58172,0.24019 4.1417,0.48739 l 0.69898,0.11076 v 0.67278 c 0,0.76195 0.0479,1.84655 0.16929,3.83948 0.046,0.75478 0.0757,1.38022 0.066,1.38985 -0.01,0.01 -0.12759,-0.011 -0.26211,-0.0457 -1.08825,-0.28161 -2.78375,-0.60235 -3.79162,-0.71728 -0.76067,-0.0868 -2.17179,-0.0981 -2.73329,-0.022 -1.71543,0.23256 -3.13989,0.88538 -4.15214,1.9029 -0.50471,0.50732 -0.82868,0.95395 -1.14398,1.57711 -0.44134,0.87222 -0.6223,1.58734 -0.65861,2.60268 -0.0592,1.65641 0.34389,2.81232 1.34188,3.84758 0.61801,0.64108 1.33091,1.0823 2.20562,1.36507 0.7107,0.22976 1.29691,0.31716 2.29023,0.34146 1.70591,0.0417 3.18144,-0.15501 5.5786,-0.74386 0.55954,-0.13745 1.02515,-0.2421 1.03467,-0.23258 0.01,0.01 -0.0582,0.39049 -0.15054,0.84658 -0.28905,1.42798 -0.71724,4.07576 -0.7809,4.8289 -0.0236,0.27958 -0.0401,0.33101 -0.11507,0.35877 -0.18845,0.0698 -2.29603,0.32513 -3.65539,0.4428 -0.71624,0.062 -3.6796,0.11895 -4.04781,0.0778 z"
     id="path1112"
     inkscape:connector-curvature="0" />
</svg>
