<?xml version="1.0" encoding="UTF-8" standalone="no"?>
<svg
   xmlns:dc="http://purl.org/dc/elements/1.1/"
   xmlns:cc="http://creativecommons.org/ns#"
   xmlns:rdf="http://www.w3.org/1999/02/22-rdf-syntax-ns#"
   xmlns:svg="http://www.w3.org/2000/svg"
   xmlns="http://www.w3.org/2000/svg"
   viewBox="0 0 34.667049 81.293801"
   height="81.2938"
   width="34.667049"
   id="svg2"
   version="1.1">
  <metadata
     id="metadata8">
    <rdf:RDF>
      <cc:Work
         rdf:about="">
        <dc:format>image/svg+xml</dc:format>
        <dc:type
           rdf:resource="http://purl.org/dc/dcmitype/StillImage" />
        <dc:title></dc:title>
      </cc:Work>
    </rdf:RDF>
  </metadata>
  <defs
     id="defs6" />
  <path
     id="path905"
     d="m 0.04379908,10.577783 c 0.141514,-0.519852 0.45117305,-0.9318993 0.84670505,-1.1266223 0.15901497,-0.07827 0.19240097,-0.08505 0.41827397,-0.0848 l 0.245451,2.96e-4 4.17365,1.7092453 c 2.295515,0.940085 4.1820781,1.699852 4.1923841,1.688369 0.01026,-0.01156 0.09115,-0.129626 0.1796618,-0.262547 l 0.160937,-0.241669 -1.7657909,-1.769227 c -1.67933,-1.6825983 -1.768681,-1.7767993 -1.824907,-1.9239093 -0.08293,-0.216927 -0.08343,-0.527482 -0.0012,-0.768931 0.125408,-0.368559 0.514458,-0.816746 0.871071,-1.003464 0.267814,-0.140229 0.441404,-0.181953 0.701824,-0.168696 0.385178,0.01965 0.290933,-0.0598 2.2457209,1.891969 0.957235,0.95577 1.749134,1.7377603 1.759772,1.7377603 0.04943,0 0.457832,-0.2960723 0.447076,-0.3241023 -0.0066,-0.0173 -0.768442,-1.833741 -1.692902,-4.0365799 C 10.077053,3.6920349 9.2919671,1.8143009 9.2569011,1.7221369 c -0.05399,-0.141975 -0.06211,-0.199813 -0.05301,-0.378679 0.0091,-0.178883 0.02526,-0.240508 0.105966,-0.403755 0.1670401,-0.337985 0.5970211,-0.675889 1.0173279,-0.799474 0.612887,-0.1802111 1.123873,-0.05456 1.434576,0.352819 0.03571,0.04683 0.843121,1.940632 1.794197,4.20842 0.951087,2.2677948 1.738211,4.1322398 1.749158,4.1432248 0.01098,0.01098 0.155075,-0.0064 0.320267,-0.03867 l 0.300329,-0.05863 0.0071,-2.500728 0.0071,-2.5007288 0.08274,-0.174676 c 0.204336,-0.431378 0.692835,-0.688086 1.309416,-0.688086 0.60777,0 1.104943,0.252495 1.307581,0.664078 l 0.08459,0.171785 0.01286,2.5138618 0.01286,2.51387 0.263738,0.05022 c 0.145047,0.02762 0.268168,0.04517 0.273611,0.03899 0.0055,-0.0062 0.761367,-1.850076 1.679836,-4.0975128 0.918472,-2.247432 1.696194,-4.138678 1.728269,-4.202768 0.06857,-0.137022 0.269688,-0.333062 0.420759,-0.410131 0.193481,-0.0987 0.407567,-0.1388131 0.649879,-0.121754 0.89695,0.06315 1.667523,0.780062 1.552965,1.444825 -0.01798,0.104492 -0.593402,1.540992 -1.710164,4.2694889 -0.925664,2.2616169 -1.687335,4.1352309 -1.692599,4.1635869 -0.0077,0.04072 0.0404,0.08413 0.227647,0.2062463 0.130478,0.08508 0.2481,0.158984 0.261408,0.164248 0.01329,0.0055 0.814684,-0.7789193 1.78084,-1.7426103 1.979993,-1.974958 1.848452,-1.865657 2.26767,-1.884295 0.286374,-0.01271 0.508275,0.05275 0.780093,0.230184 0.34066,0.222384 0.598943,0.532499 0.75377,0.905025 0.0569,0.136892 0.06743,0.201661 0.06819,0.419677 0.0019,0.444325 0.127835,0.289765 -1.884654,2.3073753 l -1.761509,1.765978 0.147796,0.226429 c 0.11742,0.17989 0.158391,0.224243 0.199357,0.215808 0.02836,-0.0055 1.878563,-0.77816 4.111562,-1.716274 2.233,-0.93812 4.123344,-1.7240823 4.20076,-1.7465893 0.09874,-0.02873 0.191202,-0.03627 0.309825,-0.02526 0.633602,0.05857 1.238975,0.8596713 1.238975,1.6395803 0,0.498724 -0.205646,0.834571 -0.631623,1.031543 -0.113433,0.05245 -1.999911,0.847299 -4.192186,1.766322 l -3.985933,1.670966 0.04523,0.208953 c 0.02483,0.114936 0.05277,0.252463 0.06198,0.305636 l 0.0168,0.09668 h 2.408065 c 1.684759,0 2.449092,0.0087 2.544678,0.02898 0.416686,0.08841 0.731126,0.425306 0.863255,0.924899 0.06005,0.227007 0.06005,0.701107 0,0.928117 -0.130882,0.49487 -0.440193,0.83302 -0.848039,0.9271 -0.06871,0.0159 -1.030777,0.0258 -2.539297,0.0261 l -2.428662,5.9e-4 -0.01655,0.0967 c -0.0091,0.0532 -0.03305,0.17089 -0.05326,0.2616 -0.02013,0.0907 -0.03305,0.1685 -0.02867,0.17288 0.0043,0.004 1.86373,0.76657 4.131869,1.69373 2.26814,0.92715 4.160326,1.70459 4.204838,1.72762 0.135288,0.07 0.311512,0.26757 0.401228,0.44984 0.07781,0.15802 0.08574,0.19671 0.09377,0.45678 0.01098,0.35689 -0.03373,0.56246 -0.19232,0.88352 -0.162543,0.32908 -0.40488,0.58828 -0.674604,0.72159 -0.185976,0.0919 -0.208989,0.0969 -0.442437,0.0962 l -0.24626,-6.2e-4 -4.17202,-1.70951 c -2.294619,-0.94024 -4.175646,-1.70559 -4.180069,-1.70078 -0.0043,0.005 -0.08502,0.12425 -0.179144,0.26544 l -0.171118,0.2567 1.762634,1.76709 c 1.954639,1.95959 1.869265,1.85898 1.89331,2.23114 0.02526,0.39146 -0.137123,0.75002 -0.508696,1.1231 -0.373508,0.37503 -0.710856,0.52858 -1.118108,0.50891 -0.400049,-0.0193 -0.281303,0.0801 -2.247345,-1.88096 -0.964439,-0.96198 -1.762139,-1.74906 -1.772673,-1.74906 -0.01055,0 -0.1169,0.065 -0.236363,0.14455 -0.191344,0.12733 -0.214684,0.15112 -0.196144,0.1998 0.01156,0.0304 0.796478,1.89986 1.744241,4.15439 l 1.723193,4.09914 0.0012,0.27069 c 0.0012,0.24732 -0.0055,0.28406 -0.07451,0.42538 -0.11066,0.22757 -0.4337,0.54018 -0.698217,0.67565 -0.811192,0.41547 -1.567303,0.25699 -1.870592,-0.39206 -0.05301,-0.11343 -0.847508,-1.99865 -1.765562,-4.18936 -0.918048,-2.19072 -1.672904,-3.98755 -1.677451,-3.99295 -0.0043,-0.005 -0.113101,0.0105 -0.241219,0.0354 l -0.232941,0.0452 v 44.21421 c 0,43.199298 -0.0043,9.92673 -0.03948,10.0644 -0.06663,0.25949 -0.162117,0.42428 -0.357928,0.61771 -0.326574,0.32261 -0.727352,0.46675 -1.238091,0.44531 -0.738688,-0.0311 -1.295516,-0.44834 -1.445178,-1.08311 -0.03348,-0.14199 -0.03812,32.347298 -0.03842,-10.05786 v -44.19995 l -0.192586,-0.0383 -0.192574,-0.0383 -0.07592,0.183 c -0.04176,0.10065 -0.808364,1.97463 -1.703578,4.16441 -1.107118,2.7081 -1.655358,4.01906 -1.714222,4.09913 -0.275316,0.37449 -0.831284,0.50758 -1.396761,0.33436 -0.7652608,-0.2344 -1.2587019,-0.85575 -1.1343209,-1.42833 0.02391,-0.11005 2.6123529,-6.48863 3.3814679,-8.33278 l 0.0346,-0.0829 -0.257034,-0.16841 c -0.14137,-0.0926 -0.265221,-0.16841 -0.275229,-0.16841 -0.01,0 -0.801395,0.78199 -1.758636,1.73775 -1.9395719,1.93656 -1.8615309,1.87025 -2.2266549,1.89214 -0.426899,0.0256 -0.767583,-0.12502 -1.152175,-0.50932 -0.203373,-0.20321 -0.264769,-0.28415 -0.352868,-0.46516 -0.125726,-0.25833 -0.174861,-0.48335 -0.152417,-0.69813 0.03576,-0.34199 -0.03527,-0.25969 1.892384,-2.19225 l 1.7644559,-1.76891 -0.148173,-0.22265 c -0.08148,-0.12246 -0.1587928,-0.22264 -0.1717858,-0.22264 -0.013,0 -1.8645631,0.77304 -4.1146011,1.71787 -2.250039,0.94484 -4.16381,1.73603 -4.252829,1.75821 -0.312334,0.0778 -0.65212297,-0.0333 -0.94791197,-0.31 -0.52001805,-0.48646 -0.72685805,-1.32639 -0.45804705,-1.86004 0.07299,-0.14488 0.23562205,-0.32924 0.35614805,-0.40374 0.04621,-0.0285 1.93799497,-0.82937 4.20396697,-1.77958 2.265971,-0.95021 4.122552,-1.73031 4.125727,-1.73356 0.0049,-0.005 -0.06644,-0.37649 -0.106269,-0.55301 l -0.01286,-0.0573 -2.493975,-0.007 -2.493989,-0.007 -0.174664,-0.0827 c -0.223211,-0.10573 -0.401414,-0.28743 -0.51989,-0.53011 -0.130868,-0.26805 -0.171382,-0.45095 -0.173124,-0.78138 -0.0038,-0.746185 0.359954,-1.295464 0.929211,-1.40262 0.08756,-0.0165 1.023215,-0.02613 2.532464,-0.02613 h 2.393603 l 0.01314,-0.05801 c 0.04436,-0.195403 0.09272,-0.464393 0.08486,-0.472264 -0.0049,-0.0049 -1.870728,-0.770599 -4.145843,-1.701121 C 2.4111201,12.765861 0.51264013,11.98183 0.46739913,11.954098 0.32720008,11.868138 0.13169408,11.631916 0.07012908,11.474069 c -0.08193,-0.210082 -0.09424,-0.643086 -0.02545,-0.895795 z"
     style="fill:#1f819e;stroke-width:0.09857023" />
</svg>
